<svg width="161" height="25" viewBox="0 0 161 25" fill="none" xmlns="http://www.w3.org/2000/svg">
<path d="M12.508 17.9897L18.9496 21.8752L17.2401 14.5522L22.9313 9.62516L15.4369 8.98975L12.508 2.0835L9.57901 8.98975L2.08466 9.62516L7.77578 14.5522L6.06636 21.8752L12.508 17.9897Z" fill="#FFD700"/>
<path d="M46.504 17.9897L52.9456 21.8752L51.2362 14.5522L56.9273 9.62516L49.4329 8.98975L46.504 2.0835L43.575 8.98975L36.0807 9.62516L41.7718 14.5522L40.0624 21.8752L46.504 17.9897Z" fill="#FFD700"/>
<path d="M80.5 17.9897L86.9416 21.8752L85.2322 14.5522L90.9233 9.62516L83.4289 8.98975L80.5 2.0835L77.571 8.98975L70.0767 9.62516L75.7678 14.5522L74.0584 21.8752L80.5 17.9897Z" fill="#FFD700"/>
<path d="M114.496 17.9897L120.938 21.8752L119.228 14.5522L124.919 9.62516L117.425 8.98975L114.496 2.0835L111.567 8.98975L104.073 9.62516L109.764 14.5522L108.054 21.8752L114.496 17.9897Z" fill="#FFD700"/>
<path d="M148.492 17.9897L154.934 21.8752L153.224 14.5522L158.915 9.62516L151.421 8.98975L148.492 2.0835L145.563 8.98975L138.069 9.62516L143.76 14.5522L142.05 21.8752L148.492 17.9897Z" fill="#FFD700"/>
</svg>
